<svg width="680" height="200" viewBox="0 0 680 200" fill="none" xmlns="http://www.w3.org/2000/svg">
<mask id="mask0_0_2110" style="mask-type:luminance" maskUnits="userSpaceOnUse" x="544" y="41" width="136" height="132">
<path fill-rule="evenodd" clip-rule="evenodd" d="M544.589 41.9899H679.05V172.271H544.589V41.9899Z" fill="white"/>
</mask>
<g mask="url(#mask0_0_2110)">
<path fill-rule="evenodd" clip-rule="evenodd" d="M623.98 91.931V41.9899H593.941V91.931H544.589V122.33H593.941V172.271H623.98V122.33H649.011C665.602 122.33 679.052 108.719 679.052 91.931H623.98Z" fill="#F1AB3F"/>
</g>
<mask id="mask1_0_2110" style="mask-type:luminance" maskUnits="userSpaceOnUse" x="0" y="0" width="524" height="200">
<path fill-rule="evenodd" clip-rule="evenodd" d="M455.266 17.8027C477.048 17.8027 500.808 25.4563 519.291 37.7702L515.57 44.4909C509.179 56.0372 495.292 60.9591 483.097 56.0916C472.919 52.0316 463.002 49.7495 454.277 49.7495C438.764 49.7495 429.854 57.0685 429.854 67.3869V68.0521C429.854 79.6713 445.738 85.1086 464.19 91.0785L465.825 91.6068C466.098 91.6952 466.372 91.7837 466.646 91.8723L468.297 92.4067C468.573 92.4962 468.849 92.5859 469.125 92.6758C470.65 93.155 472.187 93.6474 473.728 94.1564L475.271 94.6712C498.947 102.654 523.249 114.84 523.249 143.923V144.588C523.249 181.528 494.869 199.831 458.566 199.831C433.814 199.831 406.421 190.845 384.64 173.54L388.602 167.476C395.8 156.455 410.004 152.468 421.76 158.268C434.683 164.646 447.705 167.884 459.556 167.884C476.716 167.884 486.619 160.563 486.619 148.916V148.249C486.619 134.966 469.096 130.2 449.287 124.121L447.676 123.625C421.934 116.304 393.222 105.655 393.222 72.0452V71.3779C393.222 38.1007 420.613 17.8027 455.266 17.8027ZM356.488 20.798V196.503H316.557V61.0637C316.557 38.8245 334.434 20.798 356.488 20.798ZM289 17.4701V60.0659H286.689C251.706 60.0659 227.286 83.0267 227.286 129.614V156.235C227.286 178.474 209.406 196.503 187.351 196.503V20.798H227.286V60.3964C238.176 34.1097 258.307 16.1376 289 17.4701ZM0 0.665169C22.0554 0.665169 39.9329 18.6916 39.9329 40.9308V98.6666L112.208 20.798H160.723L91.4162 92.3433L163.032 196.503H141.597C126.078 196.503 111.538 188.853 102.662 176.016L64.3552 120.63L39.9329 146.253V196.503H0V0.665169Z" fill="white"/>
</mask>
<g mask="url(#mask1_0_2110)">
<path fill-rule="evenodd" clip-rule="evenodd" d="M0 267.74H681.525V0.665169H0V267.74Z" fill="url(#paint0_linear_0_2110)"/>
</g>
<defs>
<linearGradient id="paint0_linear_0_2110" x1="285.806" y1="302.073" x2="404.957" y2="-46.2469" gradientUnits="userSpaceOnUse">
<stop stop-color="#141530"/>
<stop offset="1" stop-color="#6D95C1"/>
</linearGradient>
</defs>
</svg>
